<mxfile host="Electron" modified="2024-04-19T07:09:11.543Z" agent="Mozilla/5.0 (X11; Linux x86_64) AppleWebKit/537.36 (KHTML, like Gecko) draw.io/24.0.4 Chrome/120.0.6099.109 Electron/28.1.0 Safari/537.36" etag="Mf3QFUNuLzJeoL0jvcTm" version="24.0.4" type="device">
  <diagram name="Page-1" id="j_GJmBXQYxeXqUsdOwjc">
    <mxGraphModel dx="988" dy="551" grid="1" gridSize="10" guides="1" tooltips="1" connect="1" arrows="1" fold="1" page="1" pageScale="1" pageWidth="1654" pageHeight="1169" math="0" shadow="0">
      <root>
        <mxCell id="0" />
        <mxCell id="1" parent="0" />
        <mxCell id="RKicGma7PqV81-VCO8lD-4" value="" style="rounded=0;whiteSpace=wrap;html=1;connectable=0;editable=0;movable=1;resizable=1;rotatable=1;deletable=1;locked=0;allowArrows=0;" parent="1" vertex="1">
          <mxGeometry x="310" y="280" width="510" height="260" as="geometry" />
        </mxCell>
        <mxCell id="dx3owvlk1wdpWM75EoBC-19" style="edgeStyle=orthogonalEdgeStyle;rounded=0;orthogonalLoop=1;jettySize=auto;html=1;exitX=1;exitY=0;exitDx=0;exitDy=0;entryX=0;entryY=0.5;entryDx=0;entryDy=0;endArrow=none;endFill=0;" edge="1" parent="1" source="dx3owvlk1wdpWM75EoBC-1" target="dx3owvlk1wdpWM75EoBC-2">
          <mxGeometry relative="1" as="geometry">
            <Array as="points">
              <mxPoint x="620" y="360" />
              <mxPoint x="640" y="360" />
              <mxPoint x="640" y="315" />
            </Array>
          </mxGeometry>
        </mxCell>
        <mxCell id="dx3owvlk1wdpWM75EoBC-20" style="edgeStyle=orthogonalEdgeStyle;rounded=0;orthogonalLoop=1;jettySize=auto;html=1;exitX=1;exitY=0.25;exitDx=0;exitDy=0;entryX=0;entryY=0.5;entryDx=0;entryDy=0;endArrow=none;endFill=0;" edge="1" parent="1" source="dx3owvlk1wdpWM75EoBC-1" target="dx3owvlk1wdpWM75EoBC-3">
          <mxGeometry relative="1" as="geometry">
            <Array as="points">
              <mxPoint x="620" y="390" />
              <mxPoint x="650" y="390" />
              <mxPoint x="650" y="375" />
            </Array>
          </mxGeometry>
        </mxCell>
        <mxCell id="dx3owvlk1wdpWM75EoBC-21" style="edgeStyle=orthogonalEdgeStyle;rounded=0;orthogonalLoop=1;jettySize=auto;html=1;exitX=1;exitY=0.75;exitDx=0;exitDy=0;entryX=0;entryY=0.5;entryDx=0;entryDy=0;endArrow=none;endFill=0;" edge="1" parent="1" source="dx3owvlk1wdpWM75EoBC-1" target="dx3owvlk1wdpWM75EoBC-4">
          <mxGeometry relative="1" as="geometry">
            <Array as="points">
              <mxPoint x="620" y="410" />
              <mxPoint x="650" y="410" />
              <mxPoint x="650" y="435" />
            </Array>
          </mxGeometry>
        </mxCell>
        <mxCell id="dx3owvlk1wdpWM75EoBC-22" style="edgeStyle=orthogonalEdgeStyle;rounded=0;orthogonalLoop=1;jettySize=auto;html=1;exitX=1;exitY=1;exitDx=0;exitDy=0;entryX=0;entryY=0.5;entryDx=0;entryDy=0;endArrow=none;endFill=0;" edge="1" parent="1" source="dx3owvlk1wdpWM75EoBC-1" target="dx3owvlk1wdpWM75EoBC-5">
          <mxGeometry relative="1" as="geometry">
            <Array as="points">
              <mxPoint x="620" y="430" />
              <mxPoint x="640" y="430" />
              <mxPoint x="640" y="495" />
            </Array>
          </mxGeometry>
        </mxCell>
        <mxCell id="dx3owvlk1wdpWM75EoBC-1" value="&lt;font style=&quot;font-size: 20px;&quot;&gt;FPGA&lt;/font&gt;" style="rounded=0;whiteSpace=wrap;html=1;direction=east;" vertex="1" parent="1">
          <mxGeometry x="510" y="350" width="110" height="90" as="geometry" />
        </mxCell>
        <mxCell id="dx3owvlk1wdpWM75EoBC-2" value="&lt;font style=&quot;font-size: 16px;&quot;&gt;Flash&lt;/font&gt;" style="rounded=0;whiteSpace=wrap;html=1;" vertex="1" parent="1">
          <mxGeometry x="680" y="290" width="90" height="50" as="geometry" />
        </mxCell>
        <mxCell id="dx3owvlk1wdpWM75EoBC-3" value="&lt;span style=&quot;font-size: 16px;&quot;&gt;按键&lt;/span&gt;" style="rounded=0;whiteSpace=wrap;html=1;" vertex="1" parent="1">
          <mxGeometry x="680" y="350" width="90" height="50" as="geometry" />
        </mxCell>
        <mxCell id="dx3owvlk1wdpWM75EoBC-4" value="&lt;span style=&quot;font-size: 16px;&quot;&gt;USB转&lt;/span&gt;&lt;div&gt;&lt;span style=&quot;font-size: 16px;&quot;&gt;串口&lt;/span&gt;&lt;/div&gt;" style="rounded=0;whiteSpace=wrap;html=1;" vertex="1" parent="1">
          <mxGeometry x="680" y="410" width="90" height="50" as="geometry" />
        </mxCell>
        <mxCell id="dx3owvlk1wdpWM75EoBC-5" value="&lt;span style=&quot;font-size: 16px;&quot;&gt;LED灯&lt;/span&gt;" style="rounded=0;whiteSpace=wrap;html=1;" vertex="1" parent="1">
          <mxGeometry x="680" y="470" width="90" height="50" as="geometry" />
        </mxCell>
        <mxCell id="dx3owvlk1wdpWM75EoBC-8" style="edgeStyle=orthogonalEdgeStyle;rounded=0;orthogonalLoop=1;jettySize=auto;html=1;entryX=0;entryY=0.5;entryDx=0;entryDy=0;endArrow=none;endFill=0;" edge="1" parent="1" source="dx3owvlk1wdpWM75EoBC-6" target="dx3owvlk1wdpWM75EoBC-1">
          <mxGeometry relative="1" as="geometry" />
        </mxCell>
        <mxCell id="dx3owvlk1wdpWM75EoBC-6" value="&lt;span style=&quot;font-size: 16px;&quot;&gt;JTAG&lt;/span&gt;" style="rounded=0;whiteSpace=wrap;html=1;" vertex="1" parent="1">
          <mxGeometry x="370" y="370" width="90" height="50" as="geometry" />
        </mxCell>
        <mxCell id="dx3owvlk1wdpWM75EoBC-23" value="" style="edgeStyle=orthogonalEdgeStyle;rounded=0;orthogonalLoop=1;jettySize=auto;html=1;endArrow=none;endFill=0;" edge="1" parent="1" source="dx3owvlk1wdpWM75EoBC-7" target="dx3owvlk1wdpWM75EoBC-1">
          <mxGeometry relative="1" as="geometry" />
        </mxCell>
        <mxCell id="dx3owvlk1wdpWM75EoBC-7" value="&lt;span style=&quot;font-size: 16px;&quot;&gt;晶振&lt;/span&gt;" style="rounded=0;whiteSpace=wrap;html=1;" vertex="1" parent="1">
          <mxGeometry x="530" y="490" width="70" height="30" as="geometry" />
        </mxCell>
        <mxCell id="dx3owvlk1wdpWM75EoBC-24" value="&lt;div style=&quot;background-color: rgb(255, 255, 255); font-family: &amp;quot;Droid Sans Mono&amp;quot;, &amp;quot;monospace&amp;quot;, monospace; font-size: 18px; line-height: 24px; white-space-collapse: preserve;&quot;&gt;开发板&lt;/div&gt;" style="text;html=1;align=center;verticalAlign=middle;resizable=0;points=[];autosize=1;strokeColor=none;fillColor=none;" vertex="1" parent="1">
          <mxGeometry x="310" y="280" width="80" height="40" as="geometry" />
        </mxCell>
        <mxCell id="dx3owvlk1wdpWM75EoBC-25" value="" style="shape=flexArrow;endArrow=classic;startArrow=classic;html=1;rounded=0;fillColor=default;" edge="1" parent="1">
          <mxGeometry width="100" height="100" relative="1" as="geometry">
            <mxPoint x="270" y="394.76" as="sourcePoint" />
            <mxPoint x="370" y="394.76" as="targetPoint" />
          </mxGeometry>
        </mxCell>
        <mxCell id="dx3owvlk1wdpWM75EoBC-26" value="" style="shape=flexArrow;endArrow=classic;startArrow=classic;html=1;rounded=0;fillColor=default;" edge="1" parent="1">
          <mxGeometry width="100" height="100" relative="1" as="geometry">
            <mxPoint x="770" y="434.76" as="sourcePoint" />
            <mxPoint x="870" y="434.76" as="targetPoint" />
          </mxGeometry>
        </mxCell>
      </root>
    </mxGraphModel>
  </diagram>
</mxfile>
